<?xml version="1.0" encoding="UTF-8" standalone="no"?>
<!-- Created with Inkscape (http://www.inkscape.org/) -->

<svg
   xmlns:dc="http://purl.org/dc/elements/1.1/"
   xmlns:cc="http://creativecommons.org/ns#"
   xmlns:rdf="http://www.w3.org/1999/02/22-rdf-syntax-ns#"
   xmlns:svg="http://www.w3.org/2000/svg"
   xmlns="http://www.w3.org/2000/svg"
   xmlns:sodipodi="http://sodipodi.sourceforge.net/DTD/sodipodi-0.dtd"
   xmlns:inkscape="http://www.inkscape.org/namespaces/inkscape"
   width="1264.9606"
   height="885.82672"
   id="svg5672"
   version="1.1"
   inkscape:version="0.48.4 r9939"
   sodipodi:docname="Westminster Met. B Ward Map 1916.svg">
  <defs
     id="defs5674">
    <marker
       inkscape:stockid="EmptyDiamondLstart"
       orient="auto"
       refY="0.0"
       refX="0.0"
       id="EmptyDiamondLstart"
       style="overflow:visible">
      <path
         id="path5240"
         d="M 0,-7.0710768 L -7.0710894,0 L 0,7.0710589 L 7.0710462,0 L 0,-7.0710768 z "
         style="fill-rule:evenodd;fill:#FFFFFF;stroke:#000000;stroke-width:1.0pt"
         transform="scale(0.8) translate(7,0)" />
    </marker>
    <marker
       inkscape:stockid="Arrow1Lend"
       orient="auto"
       refY="0.0"
       refX="0.0"
       id="Arrow1Lend"
       style="overflow:visible;">
      <path
         id="path5128"
         d="M 0.0,0.0 L 5.0,-5.0 L -12.5,0.0 L 5.0,5.0 L 0.0,0.0 z "
         style="fill-rule:evenodd;stroke:#000000;stroke-width:1.0pt;"
         transform="scale(0.8) rotate(180) translate(12.5,0)" />
    </marker>
  </defs>
  <sodipodi:namedview
     inkscape:document-units="mm"
     pagecolor="#ffffff"
     bordercolor="#666666"
     borderopacity="1.0"
     inkscape:pageopacity="0.0"
     inkscape:pageshadow="2"
     inkscape:zoom="0.9533894"
     inkscape:cx="632.48029"
     inkscape:cy="275.09106"
     inkscape:current-layer="layer1"
     id="namedview5676"
     showgrid="false"
     inkscape:window-width="1366"
     inkscape:window-height="706"
     inkscape:window-x="-8"
     inkscape:window-y="-8"
     inkscape:window-maximized="1"
     units="cm"
     borderlayer="true" />
  <metadata
     id="metadata5678">
    <rdf:RDF>
      <cc:Work
         rdf:about="">
        <dc:format>image/svg+xml</dc:format>
        <dc:type
           rdf:resource="http://purl.org/dc/dcmitype/StillImage" />
        <dc:title />
      </cc:Work>
    </rdf:RDF>
  </metadata>
  <g
     inkscape:label="Layer 1"
     inkscape:groupmode="layer"
     id="layer1"
     transform="translate(0,141.7322)">
    <g
       id="g4448"
       transform="matrix(1.0754353,0,0,1.0754353,-25.686805,-133.00777)">
      <path
         style="fill:#ffd5d5;stroke:none;display:inline"
         d="m 501.12856,569.40547 7.93468,-7.55305 -1.65446,-1.38983 -14.10698,-13.7193 0.0748,-1.6609 2.3646,-4.01716 3.22596,-3.03279 2.41382,-2.44214 1.65092,-1.75306 0.77709,-1.29594 -0.2073,-1.46821 -1.29013,-1.91118 -2.98821,-3.90458 -0.87752,-1.29379 -0.15574,-1.68051 -0.27879,-3.4524 -1.34113,-12.68199 -1.31651,-13.54333 -0.94738,-10.1718 -0.95357,-7.19004 -0.84594,-7.77866 -0.2553,-1.52781 -15.59207,-16.52519 -9.77712,-10.24369 -1.07404,-1.18428 -0.63547,-0.76442 -0.38937,-0.91206 -0.19956,-0.8874 -0.79019,-5.12029 -0.64019,-3.39104 -0.81245,-2.80041 -1.90301,-11.70149 -1.70613,-11.06166 -1.77996,-10.91397 -1.77998,-10.61866 -0.006,-1.7774 0.21845,-3.23893 -0.0769,-1.68851 0.70153,-10.98692 0.13839,-1.64302 0.04,-1.27387 -0.13231,-1.0524 -0.27998,-0.8309 -11.98035,4.19167 -14.41672,5.32371 -6.27245,2.67281 -4.40212,3.09115 -1.8181,2.00834 -3.64073,3.25596 -2.92704,2.91142 -2.88026,3.48023 -2.07975,2.95573 -1.58756,2.58657 -2.39968,3.94012 -2.86727,3.91551 -2.04352,2.69271 -2.62732,2.91883 -2.65194,2.94342 -3.9257,3.91807 -4.5561,3.99733 -5.81118,5.32623 -4.82681,4.39108 -4.45765,4.36646 -8.20231,7.54108 -9.62968,7.88561 -1.01693,-3.31765 -1.85221,-4.46615 -1.477,-4.8603 -4.39993,3.72352 -4.60877,3.3059 -12.57875,10.545 -6.38372,5.08085 -1.82817,-2.06625 -2.76786,-3.73681 -3.36573,-12.44204 -1.81295,0.3949 -1.40297,-0.11852 -8.7117,1.55205 -6.55387,1.06479 -1.69938,0.2749 -1.56017,0.30971 -1.76897,0.17048 -2.53467,1.00578 -3.12621,0.78983 -11.49948,1.66523 -10.45538,1.80446 0.17402,1.28828 -1.49918,0.97581 -3.2261,1.51118 -3.2609,0.50188 -3.36531,0.32786 -3.57417,0.32786 -0.4413,0.95154 0.0579,1.18408 -7.89203,0.84714 -6.56949,0.98636 -0.0695,1.76433 -7.3825,0.95187 -13.19662,1.21013 -12.39614,1.45375 -16.57269,2.04543 -19.94849,2.49785 -22.44918,2.751 -2.01957,-15.85432 -1.55516,-11.38022 -1.72931,-12.66794 -1.65985,-13.44075 -2.04268,-14.97211 -2.78553,-21.81963 -4.8296,0.56892 -4.63122,0.406 -4.76918,-0.0406 -4.76932,-0.17984 -4.35224,-0.40044 -3.656167,-0.47007 -4.841713,-0.68509 -5.976165,-1.05602 -5.071276,-1.05602 -4.538505,-1.45087 -10.816903,-3.35418 -1.044659,-3.84222 -2.11229,-7.29993 -4.062394,-14.92659 -1.526896,-5.70683 -3.391106,-12.12852 -2.277396,-8.57857 -4.3411,-16.58694 -4.596418,-17.17807 -3.786752,-13.57876 -3.577931,-13.16112 -3.434958,-12.20091 4.389964,-1.12446 7.378743,-1.14999 14.896281,-3.58624 11.555153,-2.92496 11.729171,-2.89016 6.294128,-1.52521 18.032909,-3.77971 15.04858,-2.99641 7.8632,-1.87209 11.80421,-2.91239 12.27893,-2.70357 6.03811,-1.45199 5.23764,-1.62598 13.81125,-5.19018 13.85538,-5.2911 9.35168,-3.71607 -0.84517,-3.61311 -0.81816,-4.34603 -0.57439,-4.34615 -0.50243,-6.02197 -0.40399,-4.28105 -0.15787,-3.85209 0.0682,-1.37436 0.72948,-4.36744 -1.37557,-10.15248 -1.24318,-8.60786 -2.12064,-2.90219 -3.63389,-4.92793 -1.72263,-2.2887 -0.83668,-1.23645 -0.5169,-1.49523 -0.31991,-1.20588 4.5282,-1.00899 12.42371,-2.66207 12.71299,-2.49579 6.53608,-0.92075 6.71846,-1.03783 8.8654,-1.33912 8.70585,-1.26529 8.44114,-1.20588 6.84326,-0.97419 5.88769,-0.84693 3.8314,-0.56602 3.59302,-0.5168 2.79707,-0.44298 4.11828,-0.63985 7.94647,-1.04803 5.10761,-0.76713 4.91102,-0.74426 4.82175,-0.85325 5.30901,-0.99247 5.29955,-0.9844 5.63562,-1.0336 8.04738,-1.5012 5.21727,-0.88595 6.2899,-0.94958 6.16263,-0.92076 6.34931,-0.95978 6.57079,-1.03361 4.45436,-0.71368 4.10983,-0.63985 5.11883,-0.93517 3.29771,-0.54141 3.85883,-0.81219 5.49225,-1.277341 5.48471,-1.133854 4.67144,-0.922903 5.71147,-1.019949 7.99612,-1.564191 4.14622,-0.598048 3.75803,-0.369153 5.86025,-0.799504 3.21256,-0.312952 1.27331,-0.249081 1.04118,-3.006654 1.79742,-0.0031 3.59185,-0.534009 9.39484,-1.717145 12.02889,-2.392026 7.37128,-1.635468 7.1741,-1.381946 11.09116,-2.131069 4.38673,-0.722589 20.72737,-2.761637 5.91238,-0.868527 5.94318,-0.609978 4.39387,-0.722645 8.78771,-1.445316 20.57894,-3.551954 11.64909,-1.889951 10.1359,-1.337982 5.44824,-0.711243 6.34966,-0.936602 4.32767,-0.760413 6.52738,-1.278552 7.79541,-1.805212 3.5136,-0.73477 9.73539,-1.48559 11.20023,-1.936324 4.96333,-1.168323 1.53206,-0.139394 8.83394,-1.911599 2.7557,-0.355148 1.48805,-0.298808 1.39862,-0.40042 2.96622,-0.462816 22.36139,-4.721446 3.74113,-0.890341 18.00922,-3.787434 9.91909,-1.956161 10.08811,-2.181506 8.49174,-1.593746 1.42889,-0.233489 1.42887,-0.289815 5.82822,-0.877589 2.95146,-0.440542 4.19092,-0.778567 9.84012,-1.487553 4.3363,-0.646258 8.59703,-1.431214 8.99053,-1.39087 8.44296,-1.405669 3.32456,-0.546163 6.24653,-0.994055 5.60484,-0.964305 2.77498,-0.378411 4.32015,-0.725275 4.03633,-0.662212 4.50935,-0.693757 5.80224,-1.009077 3.94173,-0.725275 3.59488,-0.567616 2.99571,-0.53607 4.54088,-0.756822 5.95991,-1.166749 4.85622,-0.441475 4.50934,-0.504552 2.74345,-0.283801 7.94654,-1.040622 3.84713,-0.409929 1.98665,-0.441474 1.65553,-0.157674 1.65553,-0.03153 2.82228,-0.457247 3.01149,-0.39417 4.09939,-0.53607 1.60824,-0.441488 -0.18587,1.044938 -1.03033,3.415315 -0.85842,3.888016 0.86413,4.232624 2.02439,8.637332 1.70209,7.477056 1.07899,4.576413 2.59899,9.455476 2.44858,9.28359 1.73953,6.254007 1.69699,5.823545 2.40604,7.306115 0.52123,1.400921 1.46663,-0.403928 1.10257,-0.05801 1.12406,0.328753 1.66797,1.022761 1.61704,1.29349 5.95037,4.498871 4.58665,4.140229 6.30558,6.890481 1.22558,1.1552 1.36481,0.22306 3.88386,-0.0389 1.14694,-0.34174 0.84614,-0.65109 2.00141,-3.08627 1.81948,-3.032078 2.06639,-2.771118 1.08262,-1.148067 1.37794,-1.148067 2.41135,-1.951581 9.81323,-7.085378 10.79762,-7.454503 2.46334,-1.76793 5.05849,-4.169352 5.00927,-4.612344 5.04736,-5.016398 6.17941,-6.222281 1.08996,-0.986148 1.13919,-0.0018 7.98783,-8.666135 2.89552,2.75689 3.01864,2.929168 4.5359,4.554013 3.4877,-3.827638 8.9846,2.230301 7.4947,1.902661 5.0606,1.706147 2.5505,0.697154 4.018,0.82828 7.3646,1.318172 1.8166,0.1834 1.7696,-0.498941 9.8662,-4.707205 3.2431,-6.289381 12.8122,-5.833722 6.1429,-3.71727 16.3784,-6.570495 16.2298,-6.768639 5.7125,-2.588957 2.8949,6.81128 3.737,8.272634 3.5636,7.975426 2.8206,6.687421 11.9178,-4.170076 3.7545,-1.317198 6.1251,-2.082817 1.8649,-0.448074 -6.1965,-18.319323 -0.5318,-0.276283 -0.5811,-1.802079 0.5851,-0.208041 -0.1832,-0.686769 0.875,-0.317616 -0.2324,-1.031309 4.0945,-1.057843 4.2667,-1.451609 0.3868,-3.571527 2.3615,-0.979786 2.5337,-0.832122 5.413,-1.299713 3.8626,-0.782909 1.876,-0.298113 1.3166,-0.1632 0.9654,-0.06363 -0.069,0.830757 0.3446,3.445358 1.4223,0.947836 1.453,-0.202653 2.8406,-0.403539 3.0668,-0.271787 2.9807,-0.09447 0.1,4.508658 0.2471,2.705993 0.121,2.580034 1.3043,0.319927 0.2461,0.861342 5.6356,0.910555 -0.5906,3.937562 -1.7719,1.599635 -0.5168,4.872715 -3.3469,-0.246088 -0.098,6.447751 0.098,5.414132 -2.3133,0.246102 -3.1009,0.418365 -4.2574,0.762904 -1.8458,0.467591 -0.6644,0.418365 0.5414,2.854716 0.566,2.387153 -6.3985,1.255094 -1.9442,0.393752 -0.4184,-1.94416 -0.4676,-2.337927 -0.4646,-2.204017 -3.5221,0.875083 -3.8391,1.058219 0.8121,2.830131 1.009,4.355912 0.689,-0.123037 0.074,0.467591 -3.6177,0.836716 0.4922,2.288715 0.9844,2.165649 2.0426,5.069606 0.3446,1.18127 -1.3782,0.442978 -0.1968,-0.467591 -1.2551,0.418365 0.3937,1.476583 -1.9195,0.566029 0.8367,2.534803 -0.9844,0.246102 1.0582,3.765284 1.037,3.718885 0.7909,2.783703 0.9095,3.551452 -3.2771,1.486468 -2.4262,1.029012 -3.3695,1.621116 1.9691,3.544046 -2.7254,1.569192 0.3449,0.60851 -2.4675,1.51284 1.7647,3.2194 1.6546,-0.99548 3.8789,6.91436 -1.8692,1.07651 4.2131,7.59472 1.5183,-0.89545 3.1489,5.0888 0.1994,1.14044 0.1396,3.87554 -0.023,5.7798 -0.1833,5.30822 -0.3544,6.15698 0.1342,3.94945 0.1499,3.59255 0.233,3.39347 0.2881,3.55865 0.4985,7.09369 0.2443,5.19565 -6.4593,0.36265 -8.2936,0.67997 -6.7427,0.91856 -6.8372,1.53994 -3.8792,1.15756 -4.088,1.12274 -6.0762,1.9467 -7.6565,3.0993 -7.7958,3.34292 -6.0555,2.61205 -6.1167,3.08055 -3.0539,1.34038 -6.5952,3.79448 -7.2422,4.26451 -5.2237,3.60324 -3.9359,3.22042 -3.9011,3.01158 -4.2,4.97703 -7.2627,7.7613 -3.6666,4.52473 -4.1337,6.17464 -5.143,7.35797 -3.4724,6.59228 -3.111,8.34265 -2.9717,6.35885 -2.1436,4.05109 -3.675,8.99317 -1.4721,4.35738 -1.6809,6.09754 -1.3779,7.67066 -2.4542,11.23726 -2.0714,10.57601 -1.0531,6.21029 -0.7746,5.02698 -1.3057,9.87994 -1.2901,11.62935 -0.6276,6.24972 -0.6277,6.59776 -0.4536,6.59776 -0.088,3.68172 -0.1572,4.30818 -0.6102,7.03279 -0.4015,5.53625 -0.3837,4.84878 -0.7835,7.67972 -1.2359,7.47089 -0.7318,5.57966 -0.8879,6.79223 -0.8183,5.85253 -2.3888,15.86208 -0.9856,8.10506 -0.3535,3.68709 -0.1448,3.26945 -0.033,6.73245 0.071,6.34962 -0.033,7.32412 -0.4161,5.0967 -0.1846,5.05129 -0.2543,1.91901 -1.76148,14.00058 -0.96773,3.53736 -0.22454,1.51081 -0.0853,1.37158 0.1426,2.84758 0.12857,2.78908 -0.28906,6.0258 -0.90382,4.38821 -0.79994,3.11641 -0.31269,2.59435 -0.2431,2.82056 -0.0691,4.59555 -0.0337,3.03087 -0.27737,2.68286 -0.45217,2.61969 -1.00903,3.24617 -0.45218,2.61971 -0.45218,5.54319 -0.48618,3.2049 -0.62539,3.93577 -0.74539,4.01553 -1.10044,4.24385 -1.47798,4.1769 -1.28521,2.7257 -1.9278,3.41113 -1.24772,2.5704 -1.12722,2.8569 -1.21826,4.36166 -0.84074,3.19156 -0.99602,4.59459 -0.48196,3.21301 -0.41768,4.69098 -0.21689,4.34291 -0.38557,3.13269 -0.64527,3.02023 -1.05756,3.82867 -1.44858,3.88787 -1.98939,5.17293 -1.32005,2.99889 -1.46724,2.99339 -1.23832,2.26648 -0.99469,2.09246 -2.13395,4.43924 -1.82072,3.24518 -2.34821,3.58791 -2.67476,4.04562 -2.48204,3.87699 -2.43926,4.05382 -2.82743,5.07388 -2.95863,5.30947 -2.87027,4.98816 -2.10401,3.25724 -4.40625,7.78962 -2.24247,3.85547 -3.02929,5.27177 -2.95062,4.99636 -1.53431,2.43918 -2.79325,3.77678 -1.77037,2.24247 -3.11251,2.44825 -1.94589,2.23793 -1.52525,2.89311 -1.39814,3.53925 -1.22412,2.33625 -1.62362,1.90659 -1.47529,1.27101 -2.54739,2.11311 -2.54739,2.53075 -3.81459,4.44406 -1.10847,2.19849 -1.66532,2.61612 -2.0186,2.26222 -1.94029,1.54005 -2.25786,0.97884 -2.4319,0.80484 -6.35162,3.81097 -4.94209,3.48035 -5.84697,4.45483 -3.96759,2.48845 -4.59406,2.69726 -10.47583,5.35973 -6.64745,3.23672 -2.0534,1.33993 -2.0534,1.0615 -8.80527,2.92349 -2.76687,1.46175 -4.74197,1.61835 -3.59345,1.06151 -10.1626,3.27152 -8.144,2.12301 -4.26342,1.0441 -2.47974,0.41764 -2.82778,0.0696 -2.95829,0.17402 -5.60335,1.14851 -5.86438,1.74887 -3.1062,0.90925 -3.28022,0.70041 -4.072,0.53945 -3.54995,0.17402 -8.77046,-0.13921 -5.95139,0.41764 -8.21361,0.62646 -9.2229,-0.27843 -5.74257,-0.48725 -6.43863,-0.90489 -7.1695,-1.60095 -4.31563,-0.76568 -2.55805,-0.087 -2.48844,-0.22622 -5.60335,-1.49655 -5.0291,-1.0441 -4.15031,-0.48725 -3.66306,-0.34803 -4.00239,-0.48725 -3.79357,-0.69607 -11.62434,-3.13231 -7.41313,-1.56615 -8.1092,-1.21812 -9.08369,-0.73087 -5.18571,-0.49595 -5.18571,-0.63516 -4.0372,-0.15662 -25.16287,-1.91419 -7.97868,-0.43504 -1.67927,0.19142 -4.85508,0.93969 -4.8002,1.09766 -1.07889,-10.15309 -0.95841,-9.3098 -1.24224,-9.72915 -0.78843,-2.58145 -1.02936,-2.50916 -1.57688,-2.60897 -9.49596,-10.62309 -12.34715,-12.26682 -16.25029,-15.59171 -6.82709,-7.30763 -12.53725,-12.46363 -15.11525,-15.08982 -8.46546,-8.84962 -3.26875,-3.37984 2.05589,-2.17519 8.22443,-8.81877 -1.41092,-2.42699 -0.87073,-1.94394 -1.18395,-2.93176 -0.94639,-2.61092 -1.24762,-4.02933 -1.21408,-4.68904 -0.78776,-3.47692 -1.02868,-5.25982 -1.22542,-6.7473 0.23403,-0.40987 0.75319,-0.49638 2.71774,-1.72827 5.13265,-3.80262 7.17196,-5.61513 -3.74378,-5.35608 -4.13314,-6.43767 -3.34408,-6.40946 -2.43554,-3.87855 -3.90651,-6.60414 -1.35395,-1.36926 7.99758,-7.84624"
         id="path3154-1-0"
         inkscape:connector-curvature="0"
         sodipodi:nodetypes="cccccccccccccccccccccccccccccccccccccccccccccccccccccccccccccccccccccccccccccccccccccccccccccccccccccccccccccccccccccccccccccccccccccccccccccccccccccccccccccccccccccccccccccccccccccccccccccccccccccccccccccccccccccccccccccccccccccccccccccccccccccccccccccccccccccccccccccccccccccccccccccccccccccccccccccccccccccccccccccccccccccccccccccccccccccccccccccccccccccccccccccccccccccccccccccccccccccccccccccccccccccccccccccccccccccccccccccccccccccccccccccccccccccccccccccccccccccccccccccccccccccccccccccccccccccccccccccccccccccccccccccccccccccccccccccccccccccccccccccccccccccccccccccccccccccccccccccccccccccccccccccccccccccccccccccccccccccccccccccccccccccccccccccccccccccccccc" />
      <path
         sodipodi:nodetypes="ccccccccccccccccccccccccccccccccccccccccccccccccccccc"
         inkscape:connector-curvature="0"
         id="path3945"
         d="m 797.41341,25.129583 3.64293,8.075563 6.99612,14.97168 9.09494,17.770125 4.05774,6.681296 0.62965,1.18933 1.15436,3.183232 2.09884,5.876739 3.04331,6.891174 3.46307,8.710155 1.60911,4.022763 0.87452,2.48362 0.87451,1.4342 2.6935,2.30872 2.20377,1.67907 1.74904,1.99388 2.20377,3.0783 5.49195,8.0805 0.41977,0.97947 0.48973,1.39922 0.27984,1.39922 0.73459,1.36424 1.81898,3.84787 2.1688,4.65241 2.48363,6.19155 3.2182,8.46531 1.04942,2.58855 1.22433,4.58246 1.78401,3.18324 3.42809,6.8212 2.06384,4.16269 7.45087,-1.67906 2.76346,-0.83954 8.36036,-19.6241 2.65852,-6.05164 2.93837,-1.60911 1.52166,0.52471 1.26804,0.5597 1.44295,0.5247 7.87063,1.81899 3.63797,0.41977 0.66463,-0.27985 0.38479,-0.48972 0.20988,-14.23709 0.22273,-5.29952 0.17733,-2.76129 16.69438,-0.17733 1.23819,-0.15563 0.89754,-0.35625 0.47988,-0.9131 0.665,-3.73027 -0.42432,-12.57144 -2.3243,-2.86896"
         style="fill:none;stroke:#000000;stroke-width:0.99921262;stroke-linecap:round;stroke-linejoin:round;stroke-miterlimit:4;stroke-opacity:1;stroke-dasharray:none;display:inline" />
      <path
         sodipodi:nodetypes="ccccccccccccccccccccccccccccccccccccccccccccccccccccccccccccccccccccccccccccccccc"
         inkscape:connector-curvature="0"
         id="path3947"
         d="m 910.31526,147.25095 0.027,1.40384 0.0972,2.26777 0.32396,6.31735 0.32397,1.90362 0.66476,2.38304 0.59871,1.96591 1.19868,3.04528 1.23108,2.75373 1.36066,2.85091 1.18839,2.00235 1.07035,1.43699 1.40987,1.47591 1.25568,0.98095 2.30017,1.61983 2.13819,1.81422 0.7775,0.9395 0.60777,1.34259 0.29935,1.15195 0.55474,3.71927 0.31323,2.10561 0.19142,1.96639 0.0348,0.55686 0.0696,5.78163 0.0522,6.08633 0.0822,1.89197 0.21363,1.77979 0.67867,5.55115 0.67867,4.19381 0.45244,1.49655 0.48725,0.9745 0.66126,0.62646 0.66127,0.34803 0.92229,-0.0348 1.51395,-0.69607 2.22742,-1.49655 7.83077,-7.55234 6.75186,-6.89108 3.16711,-2.71466 5.88178,-5.0117 3.51514,-2.95829 4.69847,-4.072 10.33661,-8.42242 4.73327,-3.86318 3.23672,-2.43624 4.76806,-3.34113 1.14852,-0.83528 0.87008,-0.87009 1.42694,-1.18332 8.90968,-6.02099 2.3318,-1.46174 2.0883,-1.32253 1.8793,-1.04411 2.8539,-1.18332 7.4131,-3.82837 3.3412,-1.70537 4.9073,-2.64506 6.6745,-3.86988 -2.0461,-3.98225 -4.8025,-8.01823 4.7681,-2.85388 2.5755,-1.67056 3.3411,-2.0186 6.2994,-4.17641 2.6451,-1.96946 -0.1583,-0.18965 5.3252,-3.60763 4.3344,-3.24735 3.724,-3.72396 -7.0999,-5.95139 3.7935,-6.090597 2.4363,-4.280821 -9.2229,-5.846975 -5.3249,-3.341128 -5.1858,-3.410735 -3.6195,-2.679863 -1.0441,-0.800479 3.898,-6.125402 7.3087,-11.485129 1.2877,-1.809777 1.0148,-1.345041"
         style="fill:none;stroke:#000000;stroke-width:0.99921262;stroke-linecap:round;stroke-linejoin:round;stroke-miterlimit:4;stroke-opacity:1;stroke-dasharray:none;display:inline" />
      <path
         sodipodi:nodetypes="ccccccccccccccccccccc"
         inkscape:connector-curvature="0"
         id="path3949"
         d="m 726.44977,101.3137 2.21234,-1.22743 0.90514,1.55685 1.12237,1.91889 1.66546,3.36712 2.53439,4.48949 6.98768,12.49093 2.93265,5.03258 5.17741,-2.96886 6.98768,-4.01882 12.02025,-8.4359 8.90659,-6.19115 2.643,-1.59305 3.36713,-1.95511 5.53945,-3.33091 3.2223,-2.099924 -5.53946,-11.042708 14.73568,-7.132501 6.91527,-3.403329 -0.72411,-1.484436 11.24776,-5.737845"
         style="fill:none;stroke:#000000;stroke-width:0.99921262;stroke-linecap:round;stroke-linejoin:round;stroke-miterlimit:4;stroke-opacity:1;stroke-dasharray:none;display:inline" />
      <path
         sodipodi:nodetypes="cccccccc"
         inkscape:connector-curvature="0"
         id="path3951"
         d="m 733.9948,235.05613 18.98313,-10.42603 10.99788,-6.1254 20.67323,-11.06749 22.4134,-12.11159 10.89347,-5.56855 8.07439,-4.38523 16.81031,-9.23805"
         style="fill:none;stroke:#000000;stroke-width:0.99921262;stroke-linecap:round;stroke-linejoin:round;stroke-miterlimit:4;stroke-opacity:1;stroke-dasharray:none;display:inline" />
      <path
         sodipodi:nodetypes="ccccccccccccccccccccccccccccccccccccccccccccccccccccccccccccccccccccccccccccccccccccccccccccccccccccccccccccccccccccccccc"
         inkscape:connector-curvature="0"
         id="path3953"
         d="m 863.17395,159.02725 -1.51672,0.26793 -1.63089,0.31514 -3.33106,0.9631 -9.31185,2.41581 -4.65593,1.18594 -2.54759,0.74671 -4.04098,1.14201 1.36971,1.95117 1.68899,2.41284 2.12769,3.20249 2.12769,3.46573 2.08382,3.5754 4.1729,6.96916 2.70157,4.76145 5.60335,10.02339 4.94208,9.22291 2.92349,5.32492 4.0372,6.92588 0,3.96759 2.47104,4.14161 -1.14851,0.48724 0.83528,1.84459 10.61504,-2.54065 0.45245,1.28772 0.0611,1.27499 -1.05768,-0.0127 -0.90913,0.14771 -3.28001,1.44391 -8.94448,5.1509 -0.43292,-0.66636 -4.16113,2.26732 -9.36212,5.56855 -13.3164,7.68036 -13.10994,7.08975 -5.56178,3.30041 -10.97079,6.32577 -15.18795,8.37324 -4.64501,2.07803 -0.82511,-1.65019 -9.38169,5.01172 -0.94734,-1.77244 -11.15413,6.66191 -4.06439,2.13916 -8.251,4.98116 -0.0611,0.58062 -0.91677,0.51951 -0.64175,-0.0611 -6.53968,4.40053 -0.73343,0.58063 -0.15279,0.21392 -1.92524,1.31405 -7.36478,4.52278 -2.20027,-1.40574 -1.19181,-1.58908 -0.94733,-1.4974 -1.803,-2.75033 -1.74188,-2.59755 -0.39726,-8.0982 -0.27505,-1.74188 -0.97789,-1.46684 -3.72824,-5.59235 0.27504,-0.18336 -6.96081,-11.87613 -1.25136,-2.91817 10.01517,-6.78055 15.15739,-10.08456 0.76399,-0.45839 -8.98443,-14.6379 -7.85373,-13.29327 -0.85566,-1.37517 5.83683,-3.69768 5.86737,-3.33096 4.51937,-2.55298 -1.53135,-2.50585 -9.91897,-15.69634 -10.75426,-17.08848 -0.66126,-1.0789 -4.97689,2.99309 -4.24602,-6.82147 -0.93969,-2.22742 -2.67987,-3.44554 -2.22742,-2.47104 -3.68916,-3.86318 -1.0441,0.24362 -1.56615,-2.15781 -1.04411,-1.53135 -0.45244,-0.9397 -0.9745,-1.42694 -1.87938,-3.23672 -0.55686,-0.97449 4.83768,-9.22291 1.77497,-2.88868 5.84698,-7.90038 8.144,-10.30181 0.76567,-1.67056 0.83529,-1.18332 5.88177,-9.50133 1.46175,-2.12301 3.48034,-4.28082 -7.03029,-12.981678 -0.67867,-0.81788 -2.90608,-5.203111 -2.22742,-4.385231 -3.0279,-5.39453 -3.16711,-5.29012 0.45244,-0.174017 -0.34803,-1.078906 1.0093,-0.278428 -0.38284,-1.357333 -0.38284,-1.42694 -1.0093,0.382837 -0.38283,-1.044102 -1.46175,0.382837 -1.18331,-2.505846 -0.87009,-1.740171 -1.11371,-1.600957 -0.93969,-1.879385 -0.83528,-2.227419 -0.66127,-2.505846 -1.91701,-7.734851"
         style="fill:none;stroke:#000000;stroke-width:0.99921262;stroke-linecap:round;stroke-linejoin:round;stroke-miterlimit:4;stroke-opacity:1;stroke-dasharray:none;display:inline" />
      <path
         sodipodi:nodetypes="cccccccccccccccccccccccccccccccccccccccccccccccccccccccccccccccccccccccccccccccccccccccccccccccccccccccccccccccccc"
         inkscape:connector-curvature="0"
         id="path3955"
         d="m 718.11686,268.84229 -0.71165,-1.28277 -8.5863,-14.75083 -3.01621,-5.01968 -3.32444,-5.04171 -2.15759,1.65121 -0.88064,1.10081 -0.869,0.5958 -11.08426,8.28205 -10.39928,8.21979 -3.86079,3.11355 -4.35898,3.73628 -6.47621,5.85347 -7.84615,6.97437 -9.52748,8.03298 -10.15019,8.28206 -11.52016,8.78022 -13.51283,10.64835 -8.17087,5.05844 -12.8955,6.49698 -4.23287,2.11644 -3.74068,2.60863 -2.51019,2.018 -2.16566,1.96877 -2.16565,2.31331 -1.91956,2.21488 -1.03361,1.32893 -0.46759,1.15666 0.71368,0.86134 -0.0738,1.79651 -0.0169,0.63217 -0.82755,0.006 -0.0291,3.15519 0.63926,0.0122 0.0128,0.72141 -0.0738,1.69878 -1.82113,-0.0564 -0.88386,0.19026 -0.71577,0.35835 -0.6921,0.64913 -0.43995,0.90128 -0.19687,1.27971 -0.0738,0.61524 -0.0492,1.55042 0.0492,1.69807 0.0984,1.50119 0.22148,1.74729 0.27071,1.67346 0.41837,1.62425 0.59062,1.67346 0.54142,1.5258 0.73829,1.57502 0.88596,1.45198 1.13204,1.40275 6.10321,6.37393 9.40092,9.54856 13.41231,13.85528 10.55759,11.09899 0.98438,-3.22386 7.48135,-24.31442 3.19927,-10.48375 1.90654,-5.75032 16.3402,0.9745 26.36359,1.11371 19.21149,-4.59406 7.44793,-1.80977 2.88869,-1.18332 1.61835,4.54185 3.21932,10.2496 0.80048,-0.10441 0.97449,0.17402 0.52206,0.41764 0.34803,0.66127 0.13921,0.62646 -0.10441,0.66126 -0.20882,0.66127 -0.55685,0.41764 -0.66127,0.41764 1.9838,6.05579 2.81908,6.50824 1.14851,1.0441 9.60574,7.23911 5.72516,-4.0546 18.11518,-11.2241 9.07469,-4.97303 7.31225,-3.78219 6.05153,-3.02576 7.35428,-3.82423 6.38772,-3.23589 10.12789,-5.12698 7.14417,-3.74018 9.49753,-4.70673 8.82514,-4.66472 13.61593,-7.06012 27.18982,-14.03617 29.58523,-15.42298 28.28247,-13.86808 13.65795,-6.68189 3.82423,-1.30275 4.6227,-0.92455 3.65613,-0.25214 3.06778,0.37822 2.5635,0.37823 1.76502,0 2.52148,-0.58835 3.10981,-1.05062 3.23588,-1.17669 1.97515,-0.63036 2.47944,-0.88251 3.00474,-0.56733 5.02193,-0.48328 13.86808,-1.13466 16.09537,-0.21013 27.02491,0.41013"
         style="fill:none;stroke:#000000;stroke-width:0.99921262;stroke-linecap:round;stroke-linejoin:round;stroke-miterlimit:4;stroke-opacity:1;stroke-dasharray:none;display:inline" />
      <path
         sodipodi:nodetypes="cccccccccccccccccccccccccccccccccccccccccccccc"
         inkscape:connector-curvature="0"
         id="path3959"
         d="m 702.4674,242.73357 -1.21192,-1.96507 3.51943,-2.87539 -2.08149,-2.85358 -8.56808,-12.49763 -14.13019,-18.61983 -5.70776,-7.86558 -3.82837,-4.31562 -2.15782,-2.61026 -4.1068,-4.80287 -8.35282,-10.1974 -5.0813,-6.43863 -2.57545,-3.20192 -1.94899,-2.19261 -1.53135,-1.54876 -1.0093,-0.70477 -1.21812,-0.49595 -1.06151,-0.12181 -0.99189,-0.19142 -0.81789,-0.27843 -0.60906,-0.48725 -5.49894,-8.03959 1.70537,-0.69607 2.19262,-0.76567 5.98619,-1.9838 2.36663,-1.0441 2.50584,-1.42694 3.86318,-2.88868 9.18811,-7.58715 1.74017,-1.35733 0.0348,-0.62646 -3.75877,-12.35522 -0.87008,-4.97689 -6.50824,-4.42003 0.87008,-1.0615 1.32253,-0.91359 1.42694,-0.9832 -5.01169,-5.46414 -0.83528,-1.21812 -1.53135,-3.654356 -1.49655,-4.594051 -9.32732,2.923487 -8.63124,-6.61265 -18.237,-13.851761 -4.38523,-3.584752 -10.97269,-8.372046"
         style="fill:none;stroke:#000000;stroke-width:0.99921262;stroke-linecap:round;stroke-linejoin:round;stroke-miterlimit:4;stroke-opacity:1;stroke-dasharray:none;display:inline" />
      <path
         sodipodi:nodetypes="cccccccccccccccccccccccccccc"
         inkscape:connector-curvature="0"
         id="path3961"
         d="m 570.30812,350.05785 -4.96232,-3.73158 -15.70553,-12.18157 -1.03502,0.32629 -0.5168,-0.0984 -3.51919,1.05822 -0.12306,-0.39375 -0.44296,0.12305 -0.0984,0.56601 -0.31993,0.51681 -0.39375,0.39376 -0.39375,0.31993 -0.76291,0.34453 -1.55041,0.59064 -10.48375,3.02699 -13.95372,4.06061 -17.49752,5.045 -3.39614,0.81211 -8.31809,0.19688 -4.23287,-0.0246 -4.25749,-0.44298 -4.10983,-0.63985 -3.2977,-0.41837 -2.65786,-0.27071 -2.68245,-0.0492 -4.5528,0.0492 -0.0492,-0.61524 -6.20165,0.5168"
         style="fill:none;stroke:#000000;stroke-width:0.99921262;stroke-linecap:round;stroke-linejoin:round;stroke-miterlimit:4;stroke-opacity:1;stroke-dasharray:none;display:inline" />
      <path
         sodipodi:nodetypes="ccccccccccccccccccccccccccccccccccccccccccccccccccccccccccccccccccccccccccccccccccc"
         inkscape:connector-curvature="0"
         id="path3963"
         d="m 455.82252,366.98302 0.49623,-0.0518 3.17464,-0.98439 2.28872,-0.95978 -0.34454,-0.56602 -0.86133,-1.40275 -0.88596,-1.59964 -1.32893,-2.48558 -0.71368,-1.59963 -1.25511,-2.36254 -0.70137,-1.84572 -0.57218,-1.9811 -0.37529,-1.98108 -0.44297,-5.61102 -0.39376,-1.67346 -0.54141,-1.23048 -0.88595,-1.08283 -1.82113,-1.42737 -1.08283,-1.32892 -0.83673,-1.03361 -1.23048,-2.06723 -0.78752,-2.26408 -0.34452,-2.21488 -0.19688,-4.33131 -0.34454,-3.93756 -0.29531,-1.96878 -0.54142,-1.7719 -0.83673,-2.31332 -0.78752,-1.72268 -0.73829,-1.2797 -1.27971,-1.18127 -1.2797,-1.03361 -1.57503,-0.88595 -1.42735,-0.7383 -1.82113,-0.83673 -4.18365,-1.82112 -8.04738,-3.56841 -3.46997,-1.40274 -4.02785,-1.22191 -7.51753,-1.91419 -8.49204,-2.19261 -5.05391,-1.06696 -6.67484,-1.68251 -6.0558,-1.56616 -7.72636,-1.74017 -5.18736,-1.15943 -3.36626,-0.37192 -6.20303,-0.69607 -7.44793,-0.62646 -8.88126,-0.45244 -7.65036,-0.52205 -7.30872,-0.59166 -7.44793,-0.48725 -11.97238,-0.87009 -8.6924,-0.59763 -6.09905,-0.58568 -3.65539,-0.51362 -4.82266,-0.99982 -4.36441,-1.20123 -4.48964,-1.35733 -4.0372,-1.60096 -4.02073,-1.6437 -2.83947,-1.15149 -4.73471,-2.50061 -5.9652,-3.38654 -7.70717,-4.12532 -4.17051,-2.00965 -3.85706,-1.59544 -1.39617,-0.70952 -1.24053,-1.15798 -1.39506,-1.57809 -1.93661,-2.66092 -2.16129,-2.96827 -2.16129,-3.41125 -2.77898,-4.332 -2.68056,-4.62732 -4.27345,-7.85919 -4.35042,-7.70596 -3.65436,-6.78667 -4.90728,-9.32731 -2.61026,-5.22052 -1.0164,-2.41558 -0.30237,-1.1544"
         style="fill:none;stroke:#000000;stroke-width:0.99921262;stroke-linecap:round;stroke-linejoin:round;stroke-miterlimit:4;stroke-opacity:1;stroke-dasharray:none;display:inline" />
      <path
         sodipodi:nodetypes="ccccccccccccccccccccccccccccccccccccccccccccccccccc"
         inkscape:connector-curvature="0"
         id="path3965"
         d="m 610.42486,416.4202 -1.72589,1.0305 -1.64743,1.19568 6.48584,9.74495 5.68277,8.80611 5.33573,9.06639 5.63938,10.02075 3.99858,-0.52884 3.84948,-0.45167 10.93542,-0.75467 3.2535,-0.21691 0.13842,2.54285 -0.15979,1.08384 -0.49984,1.39774 -3.68665,8.59685 -2.62612,6.21107 -1.63207,3.49055 -0.8118,2.32027 -0.91643,2.16333 -2.12561,3.55714 -6.07319,9.934 -6.72388,11.23538 -4.90192,7.9819 -9.10977,14.70578 -3.83912,6.09487 -2.19068,3.2318 -3.77406,4.94531 -11.71256,15.35646 -7.76351,10.19353 -3.57029,4.17939 -3.10988,4.26292 -3.79143,5.42481 -1.98503,3.21699 -3.03244,4.50181 -3.92989,5.72662 -5.51258,8.072 -3.74881,5.9761 -4.996,7.21518 -5.1107,7.58792 -5.89822,8.5274 -3.38327,4.77766 -2.06337,2.14127 -1.4644,1.3576 -1.63643,1.30024 -3.18684,2.27652 -2.91637,1.80871 -1.76378,0.92704 -1.4847,0.40188 -1.84596,0.25422 -7.99794,2.30519 -5.44484,1.84865"
         style="fill:none;stroke:#000000;stroke-width:0.99921262;stroke-linecap:round;stroke-linejoin:round;stroke-miterlimit:4;stroke-opacity:1;stroke-dasharray:none;display:inline" />
      <path
         sodipodi:nodetypes="ccccccccccccccccccccccccccccccccccccccccccccccccccccccccccccccccccccccccccccccccccccccccccccccccccccccccccccc"
         inkscape:connector-curvature="0"
         id="path3967"
         d="m 1002.3692,452.1193 -10.5475,-1.3024 -13.87327,-2.11573 -3.38225,-0.50589 -2.52946,-0.32522 -2.00912,-0.12285 -2.674,-0.0434 -1.40927,-0.77329 -1.8718,-0.4264 -12.14141,-1.38758 -0.0578,2.77518 -0.0578,3.64242 -0.43362,15.98618 0.0289,3.15099 -2.54391,0 -7.16921,-0.17344 -1.69918,-0.13197 -4.35592,0.14767 -0.56603,-0.0738 -13.58457,-4.47897 -0.39377,-0.14767 0.0492,-0.44296 -1.27971,0.0246 -1.59963,-0.49219 0.70138,-2.94086 0.65216,-4.12213 0.0492,-3.29771 -5.78329,-0.12304 0.0246,2.95315 -0.29533,-0.0492 -0.12305,6.15244 -4.38053,-1.5012 -1.57502,-0.0492 0.17226,-2.018 -0.2461,-0.41837 -3.15004,-0.49219 -6.76768,-0.7629 -4.87272,-0.44297 -10e-6,0.44298 -1.99339,-0.0984 0.17228,-2.018 -2.87934,-0.39375 -0.29532,-1.74729 -0.0492,-1.55042 -1.35354,-0.14765 -0.0246,-0.95978 -3.42074,0.14766 -4.67586,0.22148 -4.57741,0.54141 -3.98678,0.54142 -4.08521,0.38145 -3.98677,0.23379 -10.80368,-0.68907 0.0615,2.92856 -0.13535,3.76528 -0.19689,6.15244 -0.19688,5.43875 -0.0738,1.50119 -5.16805,0.36916 -4.87273,0.17226 -4.13444,0.14766 -6.54617,-0.0246 -2.14105,-0.0984 -1.77191,-0.0246 -1.90926,0.0609 -1.71615,0.17666 -1.38805,0.0757 -1.74137,-0.0505 -4.87082,-0.63093 -3.83608,-0.58045 -5.8803,-1.0095 -0.37856,2.67516 -0.30285,1.71614 -0.45428,2.7761 -0.63093,4.1137 -0.65617,4.23988 -0.93379,5.47651 -0.50475,2.44802 -0.35332,1.71614 -0.265,2.06947 -0.31545,2.22089 -0.25239,0.85807 -1.08519,3.02848 -2.49851,5.90556 -3.43227,8.00023 -0.83284,1.38806 -0.6057,1.0852 -0.83283,1.53948 -1.31234,2.44803 -4.3156,8.25261 -1.61518,2.95278 -7.19266,13.60295 -2.62468,5.14841 -1.91804,3.33134 -1.58996,3.30609 -0.42903,1.16092 -0.27761,1.07747 -0.3281,1.74912 -0.29328,1.5525 -0.22103,1.46031 -0.27496,1.77435 -0.32224,2.1958 -0.26002,3.7052 -0.1625,2.69764 -0.0975,2.37263 -0.0952,3.12247 -4.55457,3.01777 -7.37586,4.32532 -3.33404,1.81589"
         style="fill:none;stroke:#000000;stroke-width:0.99921262;stroke-linecap:round;stroke-linejoin:round;stroke-miterlimit:4;stroke-opacity:1;stroke-dasharray:none;display:inline" />
      <path
         sodipodi:nodetypes="ccccccccccccccccccccccccccccccccccccccccccccccccccccccccccccccccccccccccccccccccccccccccccccccccc"
         inkscape:connector-curvature="0"
         id="path3175"
         d="m 717.89764,406.70842 -12.27546,17.4196 -1.1535,4.3229 -1.17127,4.8335 -1.18663,3.97216 -0.50681,1.26436 -0.0738,1.30433 0,1.59962 -0.0492,1.50119 0.0738,1.89495 0.0492,1.59964 0.0984,1.77189 -0.27072,1.59964 -0.59062,1.40276 -0.46758,1.30431 -0.51682,1.42737 -0.29531,1.50119 -0.0984,1.57503 -0.0738,1.62423 0.12306,1.59963 0.19687,1.55043 0.34454,3.0516 0.78751,6.37391 0.29531,2.07113 0.14766,1.64886 0.0738,1.7926 -0.0492,1.11815 -0.20687,1.59427 -0.4576,4.6705 -0.0838,1.59573 -0.0392,1.55431 -0.0492,1.52581 0,1.72269 0.0638,2.94389 0.19153,2.53192 0.4337,2.53769 1.33356,4.53746 2.48095,6.0786 2.67247,5.38953 4.45437,8.31346 3.79352,6.95499 2.36426,4.11172 1.57966,2.62094 3.56841,5.38953 4.45436,6.64463 3.61764,5.3157 1.52189,2.58545 1.08673,2.16423 0.71368,1.59962 0.9498,2.86473 1.00437,2.85009 0.43299,1.52045 0.41836,1.37815 1.04689,2.64581 2.41175,4.60754 4.0316,6.83933 2.95172,4.78752 3.20368,5.68745 4.31957,7.63123 2.95172,5.29149 4.8955,8.74713 6.69534,11.0869 4.0316,6.98331 2.91572,4.71554 2.12379,3.23969 2.08779,2.59174 2.0518,2.23177 2.66374,2.62775 1.9798,1.58384 2.80772,2.12379 3.23968,2.12379 3.41966,2.26778 3.81563,2.44775 4.57155,3.85162 5.57945,4.64355 9.68305,8.20719 2.8797,2.55574 2.0878,2.55575 1.0439,2.08779 0.9719,1.33187 4.0676,5.39947 3.41966,4.31957 2.0158,2.15978 2.44775,2.37577 2.41177,2.12379 2.12379,1.69183 3.13169,2.37577 3.77963,3.45566 6.83933,6.83933 3.31167,3.49165 1.83581,2.23177 0.71993,1.33187 3.34767,6.58736 3.96538,7.79123 1.87716,1.87465 6.17132,10.66012 6.24094,10.38168"
         style="fill:none;stroke:#000000;stroke-width:0.99921262;stroke-linecap:round;stroke-linejoin:round;stroke-miterlimit:4;stroke-opacity:1;stroke-dasharray:none;display:inline" />
      <path
         sodipodi:nodetypes="ccccccc"
         inkscape:connector-curvature="0"
         id="path4257"
         d="m 1010.4937,159.80517 5.6874,8.0501 6.8469,10.60055 4.3616,7.18038 9.9101,15.72563 15.1916,16.49707 5.4243,5.54318"
         style="fill:none;stroke:#000000;stroke-width:0.99921262;stroke-linecap:round;stroke-linejoin:round;stroke-miterlimit:4;stroke-opacity:1;stroke-dasharray:none;display:inline" />
      <path
         sodipodi:nodetypes="ccccccc"
         inkscape:connector-curvature="0"
         id="path4261"
         d="m 1024.0899,107.96299 2.0919,-1.59964 1.1566,1.2305 -1.0828,0.86133 -0.32,-0.44296 -1.1074,0.88594 z"
         style="fill:none;stroke:#000000;stroke-width:0.99921262;stroke-linecap:round;stroke-linejoin:round;stroke-miterlimit:4;stroke-opacity:1;stroke-dasharray:none;display:inline" />
      <path
         sodipodi:nodetypes="cccccccccccccccccccccccccccccccccccccccccccccccccccccccccccccccccccccccccccccccccccccccccccccccccccccccccccccccccccccccccccccccccccccccccccccccccccccccccccccccccccccccccccccccccccccccccccccccccccccccccccccccccccccccccccccccccccccccccccccccccccccccccccccccccccccccccccccccccccccccccccccccccccccccccccccccccccccccccccccccccccccccccccccccccccccccccccccccccccccccccccccccccccccccccccccccccccccccccccccccccccccccccccccccccccccccccccccccccccccccccccccccccccccccccccccccccccccccccccccccccccccccccccccccccccccccccccccccccccccccccc"
         inkscape:connector-curvature="0"
         id="path4426"
         d="m 1165.1797,151.19857 -2.0374,0.18445 -3.9331,0.17101 -5.5293,0.17101 0.028,-0.37052 -1.7956,0.114 0,-0.34202 -0.627,0.0285 0,0.34202 -2.9071,0.17101 -0.029,-0.59852 -0.399,0.057 -0.086,-0.82654 -1.3681,0.057 -0.057,-0.59852 -3.5057,0.51301 -3.9616,0.62704 -4.2752,0.79803 -4.4747,0.79804 -2.8787,0.59852 -3.9046,0.91204 -5.1588,1.25405 -4.7312,1.31106 -5.7572,1.76708 -5.1303,1.36807 -5.6432,2.0806 -7.4959,2.82162 -4.8737,1.96659 0.456,1.14006 -0.741,0.37051 0.285,0.68404 -0.8835,0.45602 0.2565,0.57002 -10.6595,5.30123 -0.1995,-0.342 -1.7101,0.88353 -2.8786,1.51057 -1.026,0.71253 -1.4536,1.02605 -2.3656,1.65308 -1.1971,0.85504 -5.0447,3.59115 -0.399,-0.45602 -0.9406,0.71254 -0.5985,-0.76953 -0.5415,0.37051 -0.4845,-0.57002 -0.6271,0.42751 -1.368,1.08305 -2.5651,2.0521 -3.1637,2.62211 -3.5341,3.10664 -2.0236,1.85259 -2.3086,2.2516 -2.6507,2.82162 0.3136,0.45602 -1.7671,1.99509 1.425,1.19706 -4.6457,6.04226 -1.4777,-1.15215 -1.0019,1.38017 -0.114,0.37052 -0.171,0.1995 -0.3705,0.114 -0.9976,1.59608 -2.8314,5.40401 -1.1209,2.19198 -1.8931,3.48727 -2.5656,4.65797 -1.7934,3.61179 0.7223,0.42346 -0.1494,0.32381 0.5729,0.32383 -0.4982,0.89671 0.5729,0.34874 -1.3949,2.69016 -1.5692,2.86453 -2.5657,4.83233 -0.1992,-0.0747 -0.9964,1.81836 -2.9642,7.19868 -1.5443,4.1598 -2.3664,6.45142 -1.6191,-0.59782 -0.1,0.29891 1.096,0.42345 -0.3238,0.89673 -0.5729,-0.19927 -0.2491,0.69744 -0.6975,-0.22417 -0.3487,0.99635 -1.1209,3.48726 -1.14583,4.10998 -1.02203,4.12302 -1.67347,7.40753 -0.68907,4.45437 -0.83673,3.54379 -1.50119,7.23527 -1.5258,7.35831 -0.4922,3.42076 0.34454,0.0738 -0.51681,3.34692 0.71368,0.12305 0.39375,-2.70706 0.81214,0.0984 -1.20589,7.23526 -0.68906,-0.12305 0.41836,-2.87933 -0.73829,-0.12305 -0.4922,3.12543 -0.34453,-0.0984 -0.22149,1.5012 -0.98439,7.0876 -1.13205,8.24427 -1.18127,8.51496 -0.7629,6.74306 -0.71368,6.00478 -0.56603,5.61102 -0.19688,3.54381 0.14767,0.31992 -0.34454,5.09421 -0.41837,10.23765 -0.27071,0.0492 -0.14765,4.7743 0.2461,-0.0492 -0.17228,5.61101 -0.68906,0.59063 -0.19688,0.41838 -0.17228,3.2977 -0.2461,0 -0.0984,2.23948 0.36916,0.0738 -0.73829,7.06301 -0.27071,-0.0492 -0.88595,6.3247 -1.08283,8.14582 -0.63986,5.19266 -1.00899,8.14582 -0.41836,3.74068 -0.61525,5.24188 -0.78751,6.37391 -0.11781,2.1102 -0.69606,5.98619 -0.24363,0 -0.48725,4.17641 -1.21812,9.71015 -1.28772,10.58024 -0.9397,8.144 -1.32253,12.07679 -1.1137,11.24151 -0.9745,8.35282 -1.46174,14.47822 -3.58476,-0.34804 -0.0348,0.52206 -1.56892,-0.14097 -0.0189,0.51776 -0.78179,0.0256 -0.0132,0.74019 -1.23676,2.16378 -0.80048,1.07891 0.48725,3.72396 0.38284,2.78428 0.10441,2.47104 8.00479,0.0348 -0.0348,1.56616 -7.93518,0 0.20882,5.56854 7.44794,-0.17401 0.0348,2.43624 -7.41313,0.24362 0,1.53135 0.45245,0 0.0348,3.82838 2.60029,0.01 -0.0647,3.21969 -0.10081,2.8089 -0.33743,5.84446 -0.31787,3.30589 -0.16789,0 -0.22888,2.74092 -0.33298,2.59889 -0.51232,2.7782 -1.08444,4.62987 -2.39652,9.91406 -2.1877,8.06457 -1.37989,4.33003 -1.0101,2.82641 -1.01011,2.37808 -3.99788,7.85736 -2.29703,4.45484 -0.76567,1.32253 -2.59808,5.1538 -5.93745,11.41445 -1.93876,4.07138 -0.92091,1.50254 0.0485,0.99362 -0.1454,0.65433 -0.36352,0.72703 4.79843,2.30228 -1.16325,2.35075 -4.72574,-2.37499 -1.35712,2.76274 4.72572,2.35075 -1.23596,2.44768 -4.62879,-2.30228 -0.67856,1.38137 -1.72065,-1.18748 -0.9209,1.28441 0.30293,0.27264 -0.61799,0.90274 -0.31505,-0.18177 -1.81759,3.05356 -4.60455,7.60962 -1.57524,2.52038 -0.87244,1.38138 3.90176,2.27804 -1.35714,2.15686 -3.85328,-2.49614 -1.76912,2.71426 -4.11986,6.68872 1.55101,1.21173 0.41197,-0.53316 1.1875,0.89667 -3.90176,5.21041 -0.46045,-0.31504 -3.10201,3.24742 -4.19258,4.4349 -3.17471,3.39284 0.60586,0.60585 -1.4783,1.57525 -0.60585,-0.65433 -4.45916,4.70149 -3.95021,4.09563 -3.80483,4.16833 -2.93236,3.19895 -4.7742,5.25888 -2.52039,2.78698 1.52677,1.47829 -0.87244,0.84822 -1.98722,-1.1148 -4.74997,5.16196 -3.32012,3.36858 -3.34436,3.00509 -3.3686,2.83543 -2.05993,1.47831 -2.7385,1.45407 -3.90175,2.2538 -2.27804,1.13902 -2.18359,1.09588 -4.59405,2.0534 -4.28083,1.63576 -6.33422,2.33183 -6.22981,2.29702 -5.01169,1.91419 -1.14852,0.38284 -4.1416,1.18332 -0.83528,-2.61026 -1.9838,0.41764 0.0696,0.38284 -0.90489,0.24362 -0.10441,-0.34803 -4.73327,1.14851 0.34804,1.35733 -3.44554,0.76568 -5.42933,1.18332 0.17401,1.39213 -10.96307,2.43624 -7.90038,1.42694 -3.72397,0.52205 -3.96759,0.45245 -3.54995,0.0696 -4.24601,0 0.0696,7.37832 1.42694,0 0.0348,0.45244 1.0441,0.0348 0,1.14851 -1.39214,0.10441 -3.0975,-0.13921 -1.46174,-0.13922 -0.34804,-0.38283 0.0348,-0.24363 0.45245,-0.48725 0.93969,-0.31323 1.91419,-0.0696 -0.0696,-7.30872 -13.78215,-0.0348 -4.45484,-0.0696 -6.26462,-0.31323 -6.61265,-0.83528 -5.84697,-1.0093 -5.35973,-1.25293 -6.43863,-2.01859 -3.65436,-1.0093 -0.20882,0.59165 -1.98379,-0.62646 0.24362,-0.59166 -10.92827,-3.34112 -5.25532,-1.49655 -7.27391,-1.87939 -6.021,-1.39213 -5.84697,-1.21812 -5.0465,-1.0093 -6.22981,-0.9745 -6.02099,-0.93969 -4.48964,-0.55685 -4.0485,-0.4755 -4.40875,-0.4702 -3.60095,-0.0387 -0.27105,-0.54209 -1.70367,-0.0387 -0.19361,0.50335 -5.80799,0.11616 -11.0896,0.49553 -10.43872,0.89841 -8.28609,0.85183 -0.61951,-0.27103 -0.15489,-0.69696 -0.0774,-1.74242 -1.78113,-0.15487 0.23232,2.3232 -0.0387,0.65824 -0.27105,0.30976 -0.92928,0.0774 -10.10591,1.23904 -1.7424,0.19359 0.31281,2.41338 0.95841,9.3098 1.07889,10.15309 4.8002,-1.09766 4.85508,-0.93969 1.67927,-0.19142 7.97868,0.43504 25.16287,1.91419 4.0372,0.15662 5.18571,0.63516 5.18571,0.49595 9.08369,0.73087 8.1092,1.21812 7.41313,1.56615 11.62434,3.13231 3.79357,0.69607 4.00239,0.48725 3.66306,0.34803 4.15031,0.48725 5.0291,1.0441 5.60335,1.49655 2.48844,0.22622 2.55805,0.087 4.31563,0.76568 7.1695,1.60095 6.43863,0.90489 5.74257,0.48725 9.2229,0.27843 8.21361,-0.62646 5.95139,-0.41764 8.77046,0.13921 3.54995,-0.17402 4.072,-0.53945 3.28022,-0.70041 3.1062,-0.90925 5.86438,-1.74887 5.60335,-1.14851 2.95829,-0.17402 2.82778,-0.0696 2.47974,-0.41764 4.26342,-1.0441 8.144,-2.12301 10.1626,-3.27152 3.59345,-1.06151 4.74197,-1.61835 2.76687,-1.46175 8.80527,-2.92349 2.0534,-1.0615 2.0534,-1.33993 6.64745,-3.23672 10.47583,-5.35973 4.59406,-2.69726 3.96759,-2.48845 5.84697,-4.45483 4.94209,-3.48035 6.35162,-3.81097 2.4319,-0.80484 2.25786,-0.97884 1.94029,-1.54005 2.0186,-2.26222 1.66532,-2.61612 1.10847,-2.19849 3.81459,-4.44406 2.54739,-2.53075 2.54739,-2.11311 1.47529,-1.27101 1.62362,-1.90659 1.22412,-2.33625 1.39814,-3.53925 1.52525,-2.89311 1.94589,-2.23793 3.11251,-2.44825 1.77037,-2.24247 2.79325,-3.77678 1.53431,-2.43918 2.95062,-4.99636 3.02929,-5.27177 2.24247,-3.85547 4.40625,-7.78962 2.10401,-3.25724 2.87027,-4.98816 2.95863,-5.30947 2.82743,-5.07388 2.43926,-4.05382 2.48204,-3.87699 2.67476,-4.04562 2.34821,-3.58791 1.82072,-3.24518 2.13395,-4.43924 0.99469,-2.09246 1.23832,-2.26648 1.46724,-2.99339 1.32005,-2.99889 1.98939,-5.17293 1.44858,-3.88787 1.05756,-3.82867 0.64527,-3.02023 0.38557,-3.13269 0.21689,-4.34291 0.41768,-4.69098 0.48196,-3.21301 0.99602,-4.59459 0.84074,-3.19156 1.21826,-4.36166 1.12722,-2.8569 1.24772,-2.5704 1.9278,-3.41113 1.28521,-2.7257 1.47798,-4.1769 1.10044,-4.24385 0.74539,-4.01553 0.62539,-3.93577 0.48618,-3.2049 0.45218,-5.54319 0.45218,-2.61971 1.00903,-3.24617 0.45217,-2.61969 0.27737,-2.68286 0.0337,-3.03087 0.0691,-4.59555 0.2431,-2.82056 0.31269,-2.59435 0.79994,-3.11641 0.90382,-4.38821 0.28906,-6.0258 -0.12857,-2.78908 -0.1426,-2.84758 0.0853,-1.37158 0.22454,-1.51081 0.96773,-3.53736 1.76148,-14.00058 0.2543,-1.91901 0.1846,-5.05129 0.4161,-5.0967 0.033,-7.32412 -0.071,-6.34962 0.033,-6.73245 0.1448,-3.26945 0.3535,-3.68709 0.9856,-8.10506 2.3888,-15.86208 0.8183,-5.85253 0.8879,-6.79223 0.7318,-5.57966 1.2359,-7.47089 0.7835,-7.67972 0.3837,-4.84878 0.4015,-5.53625 0.6102,-7.03279 0.1572,-4.30818 0.088,-3.68172 0.4536,-6.59776 0.6277,-6.59776 0.6276,-6.24972 1.2901,-11.62935 1.3057,-9.87994 0.7746,-5.02698 1.0531,-6.21029 2.0714,-10.57601 2.4542,-11.23726 1.3779,-7.67066 1.6809,-6.09754 1.4721,-4.35738 3.675,-8.99317 2.1436,-4.05109 2.9717,-6.35885 3.111,-8.34265 3.4724,-6.59228 5.143,-7.35797 4.1337,-6.17464 3.6666,-4.52473 7.2627,-7.7613 4.2,-4.97703 3.9011,-3.01158 3.9359,-3.22042 5.2237,-3.60324 7.2422,-4.26451 6.5952,-3.79448 3.0539,-1.34038 6.1167,-3.08055 6.0555,-2.61205 7.7958,-3.34292 7.6565,-3.0993 6.0762,-1.9467 4.088,-1.12274 3.8792,-1.15756 6.8372,-1.53994 6.7427,-0.91856 8.2936,-0.67997 6.4593,-0.36265 -0.2443,-5.19565 -0.4985,-7.09369 -0.2881,-3.55865 -0.233,-3.39347 -0.1499,-3.59255 z"
         style="fill:#aaeeff;fill-opacity:1;stroke:#2276d5;stroke-width:0.99921262;stroke-linecap:round;stroke-linejoin:round;stroke-miterlimit:4;stroke-opacity:1;stroke-dasharray:none;display:inline" />
      <path
         style="fill:none;stroke:#000000;stroke-opacity:1;display:inline"
         d="m 501.12856,569.40547 7.93468,-7.55305 -1.65446,-1.38983 -14.10698,-13.7193 0.0748,-1.6609 2.3646,-4.01716 3.22596,-3.03279 2.41382,-2.44214 1.65092,-1.75306 0.77709,-1.29594 -0.2073,-1.46821 -1.29013,-1.91118 -2.98821,-3.90458 -0.87752,-1.29379 -0.15574,-1.68051 -0.27879,-3.4524 -1.34113,-12.68199 -1.31651,-13.54333 -0.94738,-10.1718 -0.95357,-7.19004 -0.84594,-7.77866 -0.2553,-1.52781 -15.59207,-16.52519 -9.77712,-10.24369 -1.07404,-1.18428 -0.63547,-0.76442 -0.38937,-0.91206 -0.19956,-0.8874 -0.79019,-5.12029 -0.64019,-3.39104 -0.81245,-2.80041 -1.90301,-11.70149 -1.70613,-11.06166 -1.77996,-10.91397 -1.77998,-10.61866 -0.006,-1.7774 0.21845,-3.23893 -0.0769,-1.68851 0.70153,-10.98692 0.13839,-1.64302 0.04,-1.27387 -0.13231,-1.0524 -0.27998,-0.8309 -11.98035,4.19167 -14.41672,5.32371 -6.27245,2.67281 -4.40212,3.09115 -1.8181,2.00834 -3.64073,3.25596 -2.92704,2.91142 -2.88026,3.48023 -2.07975,2.95573 -1.58756,2.58657 -2.39968,3.94012 -2.86727,3.91551 -2.04352,2.69271 -2.62732,2.91883 -2.65194,2.94342 -3.9257,3.91807 -4.5561,3.99733 -5.81118,5.32623 -4.82681,4.39108 -4.45765,4.36646 -8.20231,7.54108 -9.62968,7.88561 -1.01693,-3.31765 -1.85221,-4.46615 -1.477,-4.8603 -4.39993,3.72352 -4.60877,3.3059 -12.57875,10.545 -6.38372,5.08085 -1.82817,-2.06625 -2.76786,-3.73681 -3.36573,-12.44204 -1.81295,0.3949 -1.40297,-0.11852 -8.7117,1.55205 -6.55387,1.06479 -1.69938,0.2749 -1.56017,0.30971 -1.76897,0.17048 -2.53467,1.00578 -3.12621,0.78983 -11.49948,1.66523 -10.45538,1.80446 0.17402,1.28828 -1.49918,0.97581 -3.2261,1.51118 -3.2609,0.50188 -3.36531,0.32786 -3.57417,0.32786 -0.4413,0.95154 0.0579,1.18408 -7.89203,0.84714 -6.56949,0.98636 -0.0695,1.76433 -7.3825,0.95187 -13.19662,1.21013 -12.39614,1.45375 -16.57269,2.04543 -19.94849,2.49785 -22.44918,2.751 -2.01957,-15.85432 -1.55516,-11.38022 -1.72931,-12.66794 -1.65985,-13.44075 -2.04268,-14.97211 -2.78553,-21.81963 -4.8296,0.56892 -4.63122,0.406 -4.76918,-0.0406 -4.76932,-0.17984 -4.35224,-0.40044 -3.656167,-0.47007 -4.841713,-0.68509 -5.976165,-1.05602 -5.071276,-1.05602 -4.538505,-1.45087 -10.816903,-3.35418 -1.044659,-3.84222 -2.11229,-7.29993 -4.062394,-14.92659 -1.526896,-5.70683 -3.391106,-12.12852 -2.277396,-8.57857 -4.3411,-16.58694 -4.596418,-17.17807 -3.786752,-13.57876 -3.577931,-13.16112 -3.434958,-12.20091 4.389964,-1.12446 7.378743,-1.14999 14.896281,-3.58624 11.555153,-2.92496 11.729171,-2.89016 6.294128,-1.52521 18.032909,-3.77971 15.04858,-2.99641 7.8632,-1.87209 11.80421,-2.91239 12.27893,-2.70357 6.03811,-1.45199 5.23764,-1.62598 13.81125,-5.19018 13.85538,-5.2911 9.35168,-3.71607 -0.84517,-3.61311 -0.81816,-4.34603 -0.57439,-4.34615 -0.50243,-6.02197 -0.40399,-4.28105 -0.15787,-3.85209 0.0682,-1.37436 0.72948,-4.36744 -1.37557,-10.15248 -1.24318,-8.60786 -2.12064,-2.90219 -3.63389,-4.92793 -1.72263,-2.2887 -0.83668,-1.23645 -0.5169,-1.49523 -0.31991,-1.20588 4.5282,-1.00899 12.42371,-2.66207 12.71299,-2.49579 6.53608,-0.92075 6.71846,-1.03783 8.8654,-1.33912 8.70585,-1.26529 8.44114,-1.20588 6.84326,-0.97419 5.88769,-0.84693 3.8314,-0.56602 3.59302,-0.5168 2.79707,-0.44298 4.11828,-0.63985 7.94647,-1.04803 5.10761,-0.76713 4.91102,-0.74426 4.82175,-0.85325 5.30901,-0.99247 5.29955,-0.9844 5.63562,-1.0336 8.04738,-1.5012 5.21727,-0.88595 6.2899,-0.94958 6.16263,-0.92076 6.34931,-0.95978 6.57079,-1.03361 4.45436,-0.71368 4.10983,-0.63985 5.11883,-0.93517 3.29771,-0.54141 3.85883,-0.81219 5.49225,-1.277341 5.48471,-1.133854 4.67144,-0.922903 5.71147,-1.019949 7.99612,-1.564191 4.14622,-0.598048 3.75803,-0.369153 5.86025,-0.799504 3.21256,-0.312952 1.27331,-0.249081 1.04118,-3.006654 1.79742,-0.0031 3.59185,-0.534009 9.39484,-1.717145 12.02889,-2.392026 7.37128,-1.635468 7.1741,-1.381946 11.09116,-2.131069 4.38673,-0.722589 20.72737,-2.761637 5.91238,-0.868527 5.94318,-0.609978 4.39387,-0.722645 8.78771,-1.445316 20.57894,-3.551954 11.64909,-1.889951 10.1359,-1.337982 5.44824,-0.711243 6.34966,-0.936602 4.32767,-0.760413 6.52738,-1.278552 7.79541,-1.805212 3.5136,-0.73477 9.73539,-1.48559 11.20023,-1.936324 4.96333,-1.168323 1.53206,-0.139394 8.83394,-1.911599 2.7557,-0.355148 1.48805,-0.298808 1.39862,-0.40042 2.96622,-0.462816 22.36139,-4.721446 3.74113,-0.890341 18.00922,-3.787434 9.91909,-1.956161 10.08811,-2.181506 8.49174,-1.593746 1.42889,-0.233489 1.42887,-0.289815 5.82822,-0.877589 2.95146,-0.440542 4.19092,-0.778567 9.84012,-1.487553 4.3363,-0.646258 8.59703,-1.431214 8.99053,-1.39087 8.44296,-1.405669 3.32456,-0.546163 6.24653,-0.994055 5.60484,-0.964305 2.77498,-0.378411 4.32015,-0.725275 4.03633,-0.662212 4.50935,-0.693757 5.80224,-1.009077 3.94173,-0.725275 3.59488,-0.567616 2.99571,-0.53607 4.54088,-0.756822 5.95991,-1.166749 4.85622,-0.441475 4.50934,-0.504552 2.74345,-0.283801 7.94654,-1.040622 3.84713,-0.409929 1.98665,-0.441474 1.65553,-0.157674 1.65553,-0.03153 2.82228,-0.457247 3.01149,-0.39417 4.09939,-0.53607 1.60824,-0.441488 -0.18587,1.044938 -1.03033,3.415315 -0.85842,3.888016 0.86413,4.232624 2.02439,8.637332 1.70209,7.477056 1.07899,4.576413 2.59899,9.455476 2.44858,9.28359 1.73953,6.254007 1.69699,5.823545 2.40604,7.306115 0.52123,1.400921 1.46663,-0.403928 1.10257,-0.05801 1.12406,0.328753 1.66797,1.022761 1.61704,1.29349 5.95037,4.498871 4.58665,4.140229 6.30558,6.890481 1.22558,1.1552 1.36481,0.22306 3.88386,-0.0389 1.14694,-0.34174 0.84614,-0.65109 2.00141,-3.08627 1.81948,-3.032078 2.06639,-2.771118 1.08262,-1.148067 1.37794,-1.148067 2.41135,-1.951581 9.81323,-7.085378 10.79762,-7.454503 2.46334,-1.76793 5.05849,-4.169352 5.00927,-4.612344 5.04736,-5.016398 6.17941,-6.222281 1.08996,-0.986148 1.13919,-0.0018 7.98783,-8.666135 2.89552,2.75689 3.01864,2.929168 4.5359,4.554013 3.4877,-3.827638 8.9846,2.230301 7.4947,1.902661 5.0606,1.706147 2.5505,0.697154 4.018,0.82828 7.3646,1.318172 1.8166,0.1834 1.7696,-0.498941 9.8662,-4.707205 3.2431,-6.289381 12.8122,-5.833722 6.1429,-3.71727 16.3784,-6.570495 16.2298,-6.768639 5.7125,-2.588957 2.8949,6.81128 3.737,8.272634 3.5636,7.975426 2.8206,6.687421 11.9178,-4.170076 3.7545,-1.317198 6.1251,-2.082817 1.8649,-0.448074 -6.1965,-18.319323 -0.5318,-0.276283 -0.5811,-1.802079 0.5851,-0.208041 -0.1832,-0.686769 0.875,-0.317616 -0.2324,-1.031309 4.0945,-1.057843 4.2667,-1.451609 0.3868,-3.571527 2.3615,-0.979786 2.5337,-0.832122 5.413,-1.299713 3.8626,-0.782909 1.876,-0.298113 1.3166,-0.1632 0.9654,-0.06363 -0.069,0.830757 0.3446,3.445358 1.4223,0.947836 1.453,-0.202653 2.8406,-0.403539 3.0668,-0.271787 2.9807,-0.09447 0.1,4.508658 0.2471,2.705993 0.121,2.580034 1.3043,0.319927 0.2461,0.861342 5.6356,0.910555 -0.5906,3.937562 -1.7719,1.599635 -0.5168,4.872715 -3.3469,-0.246088 -0.098,6.447751 0.098,5.414132 -2.3133,0.246102 -3.1009,0.418365 -4.2574,0.762904 -1.8458,0.467591 -0.6644,0.418365 0.5414,2.854716 0.566,2.387153 -6.3985,1.255094 -1.9442,0.393752 -0.4184,-1.94416 -0.4676,-2.337927 -0.4646,-2.204017 -3.5221,0.875083 -3.8391,1.058219 0.8121,2.830131 1.009,4.355912 0.689,-0.123037 0.074,0.467591 -3.6177,0.836716 0.4922,2.288715 0.9844,2.165649 2.0426,5.069606 0.3446,1.18127 -1.3782,0.442978 -0.1968,-0.467591 -1.2551,0.418365 0.3937,1.476583 -1.9195,0.566029 0.8367,2.534803 -0.9844,0.246102 1.0582,3.765284 1.037,3.718885 0.7909,2.783703 0.9095,3.551452 -3.2771,1.486468 -2.4262,1.029012 -3.3695,1.621116 1.9691,3.544046 -2.7254,1.569192 0.3449,0.60851 -2.4675,1.51284 1.7647,3.2194 1.6546,-0.99548 3.8789,6.91436 -1.8692,1.07651 4.2131,7.59472 1.5183,-0.89545 3.1489,5.0888 0.1994,1.14044 0.1396,3.87554 -0.023,5.7798 -0.1833,5.30822 -0.3544,6.15698 0.1342,3.94945 0.1499,3.59255 0.233,3.39347 0.2881,3.55865 0.4985,7.09369 0.2443,5.19565 -6.4593,0.36265 -8.2936,0.67997 -6.7427,0.91856 -6.8372,1.53994 -3.8792,1.15756 -4.088,1.12274 -6.0762,1.9467 -7.6565,3.0993 -7.7958,3.34292 -6.0555,2.61205 -6.1167,3.08055 -3.0539,1.34038 -6.5952,3.79448 -7.2422,4.26451 -5.2237,3.60324 -3.9359,3.22042 -3.9011,3.01158 -4.2,4.97703 -7.2627,7.7613 -3.6666,4.52473 -4.1337,6.17464 -5.143,7.35797 -3.4724,6.59228 -3.111,8.34265 -2.9717,6.35885 -2.1436,4.05109 -3.675,8.99317 -1.4721,4.35738 -1.6809,6.09754 -1.3779,7.67066 -2.4542,11.23726 -2.0714,10.57601 -1.0531,6.21029 -0.7746,5.02698 -1.3057,9.87994 -1.2901,11.62935 -0.6276,6.24972 -0.6277,6.59776 -0.4536,6.59776 -0.088,3.68172 -0.1572,4.30818 -0.6102,7.03279 -0.4015,5.53625 -0.3837,4.84878 -0.7835,7.67972 -1.2359,7.47089 -0.7318,5.57966 -0.8879,6.79223 -0.8183,5.85253 -2.3888,15.86208 -0.9856,8.10506 -0.3535,3.68709 -0.1448,3.26945 -0.033,6.73245 0.071,6.34962 -0.033,7.32412 -0.4161,5.0967 -0.1846,5.05129 -0.2543,1.91901 -1.76148,14.00058 -0.96773,3.53736 -0.22454,1.51081 -0.0853,1.37158 0.1426,2.84758 0.12857,2.78908 -0.28906,6.0258 -0.90382,4.38821 -0.79994,3.11641 -0.31269,2.59435 -0.2431,2.82056 -0.0691,4.59555 -0.0337,3.03087 -0.27737,2.68286 -0.45217,2.61969 -1.00903,3.24617 -0.45218,2.61971 -0.45218,5.54319 -0.48618,3.2049 -0.62539,3.93577 -0.74539,4.01553 -1.10044,4.24385 -1.47798,4.1769 -1.28521,2.7257 -1.9278,3.41113 -1.24772,2.5704 -1.12722,2.8569 -1.21826,4.36166 -0.84074,3.19156 -0.99602,4.59459 -0.48196,3.21301 -0.41768,4.69098 -0.21689,4.34291 -0.38557,3.13269 -0.64527,3.02023 -1.05756,3.82867 -1.44858,3.88787 -1.98939,5.17293 -1.32005,2.99889 -1.46724,2.99339 -1.23832,2.26648 -0.99469,2.09246 -2.13395,4.43924 -1.82072,3.24518 -2.34821,3.58791 -2.67476,4.04562 -2.48204,3.87699 -2.43926,4.05382 -2.82743,5.07388 -2.95863,5.30947 -2.87027,4.98816 -2.10401,3.25724 -4.40625,7.78962 -2.24247,3.85547 -3.02929,5.27177 -2.95062,4.99636 -1.53431,2.43918 -2.79325,3.77678 -1.77037,2.24247 -3.11251,2.44825 -1.94589,2.23793 -1.52525,2.89311 -1.39814,3.53925 -1.22412,2.33625 -1.62362,1.90659 -1.47529,1.27101 -2.54739,2.11311 -2.54739,2.53075 -3.81459,4.44406 -1.10847,2.19849 -1.66532,2.61612 -2.0186,2.26222 -1.94029,1.54005 -2.25786,0.97884 -2.4319,0.80484 -6.35162,3.81097 -4.94209,3.48035 -5.84697,4.45483 -3.96759,2.48845 -4.59406,2.69726 -10.47583,5.35973 -6.64745,3.23672 -2.0534,1.33993 -2.0534,1.0615 -8.80527,2.92349 -2.76687,1.46175 -4.74197,1.61835 -3.59345,1.06151 -10.1626,3.27152 -8.144,2.12301 -4.26342,1.0441 -2.47974,0.41764 -2.82778,0.0696 -2.95829,0.17402 -5.60335,1.14851 -5.86438,1.74887 -3.1062,0.90925 -3.28022,0.70041 -4.072,0.53945 -3.54995,0.17402 -8.77046,-0.13921 -5.95139,0.41764 -8.21361,0.62646 -9.2229,-0.27843 -5.74257,-0.48725 -6.43863,-0.90489 -7.1695,-1.60095 -4.31563,-0.76568 -2.55805,-0.087 -2.48844,-0.22622 -5.60335,-1.49655 -5.0291,-1.0441 -4.15031,-0.48725 -3.66306,-0.34803 -4.00239,-0.48725 -3.79357,-0.69607 -11.62434,-3.13231 -7.41313,-1.56615 -8.1092,-1.21812 -9.08369,-0.73087 -5.18571,-0.49595 -5.18571,-0.63516 -4.0372,-0.15662 -25.16287,-1.91419 -7.97868,-0.43504 -1.67927,0.19142 -4.85508,0.93969 -4.8002,1.09766 -1.07889,-10.15309 -0.95841,-9.3098 -1.24224,-9.72915 -0.78843,-2.58145 -1.02936,-2.50916 -1.57688,-2.60897 -9.49596,-10.62309 -12.34715,-12.26682 -16.25029,-15.59171 -6.82709,-7.30763 -12.53725,-12.46363 -15.11525,-15.08982 -8.46546,-8.84962 -3.26875,-3.37984 2.05589,-2.17519 8.22443,-8.81877 -1.41092,-2.42699 -0.87073,-1.94394 -1.18395,-2.93176 -0.94639,-2.61092 -1.24762,-4.02933 -1.21408,-4.68904 -0.78776,-3.47692 -1.02868,-5.25982 -1.22542,-6.7473 0.23403,-0.40987 0.75319,-0.49638 2.71774,-1.72827 5.13265,-3.80262 7.17196,-5.61513 -3.74378,-5.35608 -4.13314,-6.43767 -3.34408,-6.40946 -2.43554,-3.87855 -3.90651,-6.60414 -1.35395,-1.36926 7.99758,-7.84624"
         id="path3154-1-0-1"
         inkscape:connector-curvature="0"
         sodipodi:nodetypes="cccccccccccccccccccccccccccccccccccccccccccccccccccccccccccccccccccccccccccccccccccccccccccccccccccccccccccccccccccccccccccccccccccccccccccccccccccccccccccccccccccccccccccccccccccccccccccccccccccccccccccccccccccccccccccccccccccccccccccccccccccccccccccccccccccccccccccccccccccccccccccccccccccccccccccccccccccccccccccccccccccccccccccccccccccccccccccccccccccccccccccccccccccccccccccccccccccccccccccccccccccccccccccccccccccccccccccccccccccccccccccccccccccccccccccccccccccccccccccccccccccccccccccccccccccccccccccccccccccccccccccccccccccccccccccccccccccccccccccccccccccccccccccccccccccccccccccccccccccccccccccccccccccccccccccccccccccccccccccccccccccccccccccccccccccccccccc" />
    </g>
    <path
       style="fill:none;stroke:#ffffff;stroke-width:2;stroke-linecap:round;stroke-linejoin:round;stroke-miterlimit:4;stroke-opacity:1;stroke-dasharray:none"
       d="m 1076.9321,-23.049315 -9.2875,-74.093254"
       id="path6321-0"
       inkscape:connector-curvature="0" />
    <path
       sodipodi:type="arc"
       style="fill:none;stroke:#ffffff;stroke-width:7.80221997;stroke-linecap:round;stroke-linejoin:round;stroke-miterlimit:4;stroke-opacity:1;stroke-dasharray:none"
       id="path6301"
       sodipodi:cx="965.06982"
       sodipodi:cy="34.270241"
       sodipodi:rx="22.289894"
       sodipodi:ry="22.289894"
       d="m 987.35972,34.270241 c 0,12.310368 -9.97953,22.289894 -22.2899,22.289894 -12.31036,0 -22.28989,-9.979526 -22.28989,-22.289894 0,-12.310369 9.97953,-22.289894 22.28989,-22.289894 12.31037,0 22.2899,9.979525 22.2899,22.289894 z"
       transform="matrix(0.2563373,0,0,0.2563373,829.80667,-25.900396)" />
    <path
       sodipodi:type="arc"
       style="fill:none;stroke:#ff0000;stroke-width:3.90110998000000020;stroke-linecap:round;stroke-linejoin:round;stroke-miterlimit:4;stroke-opacity:1;stroke-dasharray:none"
       id="path6301-5"
       sodipodi:cx="965.06982"
       sodipodi:cy="34.270241"
       sodipodi:rx="22.289894"
       sodipodi:ry="22.289894"
       d="m 987.35972,34.270241 c 0,12.310368 -9.97953,22.289894 -22.2899,22.289894 -12.31036,0 -22.28989,-9.979526 -22.28989,-22.289894 0,-12.310369 9.97953,-22.289894 22.28989,-22.289894 12.31037,0 22.2899,9.979525 22.2899,22.289894 z"
       transform="matrix(0.2563373,0,0,0.2563373,829.80664,-25.900399)" />
    <path
       style="fill:none;stroke:#ff0000;stroke-width:1;stroke-linecap:round;stroke-linejoin:round;stroke-miterlimit:4;stroke-opacity:1;stroke-dasharray:none"
       d="m 1076.9321,118.68289 -9.2875,-74.093254"
       id="path6321"
       inkscape:connector-curvature="0"
       transform="translate(0,-141.7322)" />
    <text
       xml:space="preserve"
       style="font-size:24px;font-style:normal;font-variant:normal;font-weight:normal;font-stretch:normal;text-align:center;line-height:94.99999881%;letter-spacing:0px;word-spacing:0px;writing-mode:lr-tb;text-anchor:middle;fill:#000000;fill-opacity:1;stroke:none;font-family:DejaVu Sans Condensed;-inkscape-font-specification:'DejaVu Sans Condensed,'"
       x="230.93913"
       y="234.32916"
       id="text3304"
       sodipodi:linespacing="94.999999%"><tspan
         sodipodi:role="line"
         id="tspan3306"
         x="230.93913"
         y="234.32916">Hamlet of Knightsbridge</tspan></text>
    <text
       xml:space="preserve"
       style="font-size:24px;font-style:normal;font-variant:normal;font-weight:normal;font-stretch:normal;text-align:center;line-height:94.99999881%;letter-spacing:0px;word-spacing:0px;writing-mode:lr-tb;text-anchor:middle;fill:#000000;fill-opacity:1;stroke:none;font-family:DejaVu Sans Condensed;-inkscape-font-specification:'DejaVu Sans Condensed,'"
       x="484.02014"
       y="93.998909"
       id="text3308"
       sodipodi:linespacing="94.999999%"><tspan
         sodipodi:role="line"
         id="tspan3310"
         x="484.02014"
         y="93.998909">Grosvenor</tspan></text>
    <text
       xml:space="preserve"
       style="font-size:24px;font-style:normal;font-variant:normal;font-weight:normal;font-stretch:normal;text-align:center;line-height:94.99999881%;letter-spacing:0px;word-spacing:0px;writing-mode:lr-tb;text-anchor:middle;fill:#000000;fill-opacity:1;stroke:none;font-family:DejaVu Sans Condensed;-inkscape-font-specification:'DejaVu Sans Condensed,'"
       x="584.28992"
       y="378.89273"
       id="text3312"
       sodipodi:linespacing="94.999999%"><tspan
         sodipodi:role="line"
         id="tspan3314"
         x="584.28992"
         y="378.89273">Knightsbridge</tspan><tspan
         sodipodi:role="line"
         x="584.28992"
         y="401.69272"
         id="tspan3340">St George's</tspan></text>
    <text
       xml:space="preserve"
       style="font-size:24px;font-style:normal;font-variant:normal;font-weight:normal;font-stretch:normal;text-align:center;line-height:94.99999881%;letter-spacing:0px;word-spacing:0px;writing-mode:lr-tb;text-anchor:middle;fill:#000000;fill-opacity:1;stroke:none;font-family:DejaVu Sans Condensed;-inkscape-font-specification:'DejaVu Sans Condensed,'"
       x="696.3418"
       y="537.67267"
       id="text3316"
       sodipodi:linespacing="94.999999%"><tspan
         sodipodi:role="line"
         id="tspan3318"
         x="696.3418"
         y="537.67267">Victoria</tspan></text>
    <text
       xml:space="preserve"
       style="font-size:24px;font-style:normal;font-variant:normal;font-weight:normal;font-stretch:normal;text-align:center;line-height:94.99999881%;letter-spacing:0px;word-spacing:0px;writing-mode:lr-tb;text-anchor:middle;fill:#000000;fill-opacity:1;stroke:none;font-family:DejaVu Sans Condensed;-inkscape-font-specification:'DejaVu Sans Condensed,'"
       x="911.00806"
       y="493.34473"
       id="text3320"
       sodipodi:linespacing="94.999999%"><tspan
         sodipodi:role="line"
         id="tspan3322"
         x="911.00806"
         y="493.34473">St John</tspan></text>
    <text
       xml:space="preserve"
       style="font-size:24px;font-style:normal;font-variant:normal;font-weight:normal;font-stretch:normal;text-align:center;line-height:94.99999881%;letter-spacing:0px;word-spacing:0px;writing-mode:lr-tb;text-anchor:middle;fill:#000000;fill-opacity:1;stroke:none;font-family:DejaVu Sans Condensed;-inkscape-font-specification:'DejaVu Sans Condensed,'"
       x="902.6886"
       y="320.30939"
       id="text3324"
       sodipodi:linespacing="94.999999%"><tspan
         sodipodi:role="line"
         id="tspan3326"
         x="902.6886"
         y="320.30939">St Margaret</tspan></text>
    <text
       xml:space="preserve"
       style="font-size:24px;font-style:normal;font-variant:normal;font-weight:normal;font-stretch:normal;text-align:center;line-height:94.99999881%;letter-spacing:0px;word-spacing:0px;writing-mode:lr-tb;text-anchor:middle;fill:#000000;fill-opacity:1;stroke:none;font-family:DejaVu Sans Condensed;-inkscape-font-specification:'DejaVu Sans Condensed,'"
       x="750.02765"
       y="233.33954"
       id="text3328"
       sodipodi:linespacing="94.999999%"><tspan
         sodipodi:role="line"
         id="tspan3330"
         x="750.02765"
         y="233.33954">Charing Cross</tspan></text>
    <text
       xml:space="preserve"
       style="font-size:24px;font-style:normal;font-variant:normal;font-weight:normal;font-stretch:normal;text-align:center;line-height:94.99999881%;letter-spacing:0px;word-spacing:0px;writing-mode:lr-tb;text-anchor:middle;fill:#000000;fill-opacity:1;stroke:none;font-family:DejaVu Sans Condensed;-inkscape-font-specification:'DejaVu Sans Condensed,'"
       x="833.04382"
       y="132.32916"
       id="text3332"
       sodipodi:linespacing="94.999999%"><tspan
         sodipodi:role="line"
         id="tspan3334"
         x="833.04382"
         y="132.32916">Pall Mall</tspan></text>
    <text
       xml:space="preserve"
       style="font-size:22px;font-style:normal;font-variant:normal;font-weight:normal;font-stretch:normal;text-align:center;line-height:94.99999880999999400%;letter-spacing:0px;word-spacing:0px;writing-mode:lr-tb;text-anchor:middle;fill:#000000;fill-opacity:1;stroke:none;font-family:DejaVu Sans Condensed;-inkscape-font-specification:'DejaVu Sans Condensed,'"
       x="690.70837"
       y="-42.333656"
       id="text3336"
       sodipodi:linespacing="94.999999%"><tspan
         sodipodi:role="line"
         id="tspan3338"
         x="690.70837"
         y="-42.333656">Conduit</tspan></text>
    <text
       xml:space="preserve"
       style="font-size:20px;font-style:normal;font-variant:normal;font-weight:normal;font-stretch:normal;text-align:center;line-height:94.99999881%;letter-spacing:0px;word-spacing:0px;writing-mode:lr-tb;text-anchor:middle;fill:#000000;fill-opacity:1;stroke:none;font-family:DejaVu Sans Condensed;-inkscape-font-specification:'DejaVu Sans Condensed,'"
       x="793.40802"
       y="-76.17083"
       id="text3340"
       sodipodi:linespacing="94.999999%"><tspan
         sodipodi:role="line"
         id="tspan3342"
         x="793.40802"
         y="-76.17083">Great</tspan><tspan
         sodipodi:role="line"
         x="793.40802"
         y="-57.17083"
         id="tspan3343">Malborough</tspan></text>
    <text
       xml:space="preserve"
       style="font-size:24px;font-style:normal;font-variant:normal;font-weight:normal;font-stretch:normal;text-align:center;line-height:94.99999881%;letter-spacing:0px;word-spacing:0px;writing-mode:lr-tb;text-anchor:middle;fill:#000000;fill-opacity:1;stroke:none;font-family:DejaVu Sans Condensed;-inkscape-font-specification:'DejaVu Sans Condensed,'"
       x="806.72388"
       y="42.662323"
       id="text3344"
       sodipodi:linespacing="94.999999%"><tspan
         sodipodi:role="line"
         id="tspan3346"
         x="806.72388"
         y="42.662323">Regent</tspan></text>
    <text
       xml:space="preserve"
       style="font-size:22px;font-style:normal;font-variant:normal;font-weight:normal;font-stretch:normal;text-align:center;line-height:94.99999881%;letter-spacing:0px;word-spacing:0px;writing-mode:lr-tb;text-anchor:middle;fill:#000000;fill-opacity:1;stroke:none;font-family:DejaVu Sans Condensed;-inkscape-font-specification:'DejaVu Sans Condensed,'"
       x="913.38611"
       y="-19.834229"
       id="text3348"
       sodipodi:linespacing="94.999999%"><tspan
         sodipodi:role="line"
         id="tspan3350"
         x="913.38611"
         y="-19.834229">St Anne</tspan></text>
    <text
       xml:space="preserve"
       style="font-size:24px;font-style:normal;font-variant:normal;font-weight:normal;font-stretch:normal;text-align:center;line-height:94.99999881%;letter-spacing:0px;word-spacing:0px;writing-mode:lr-tb;text-anchor:middle;fill:#000000;fill-opacity:1;stroke:none;font-family:DejaVu Sans Condensed;-inkscape-font-specification:'DejaVu Sans Condensed,'"
       x="1028.3804"
       y="-2.9970589"
       id="text3352"
       sodipodi:linespacing="94.999999%"><tspan
         sodipodi:role="line"
         id="tspan3354"
         x="1028.3804"
         y="-2.9970589">Covent</tspan><tspan
         sodipodi:role="line"
         x="1028.3804"
         y="19.80294"
         id="tspan3345">Garden</tspan></text>
    <text
       xml:space="preserve"
       style="font-size:24px;font-style:normal;font-variant:normal;font-weight:normal;font-stretch:normal;text-align:center;line-height:94.99999881%;letter-spacing:0px;word-spacing:0px;writing-mode:lr-tb;text-anchor:middle;fill:#000000;fill-opacity:1;stroke:none;font-family:DejaVu Sans Condensed;-inkscape-font-specification:'DejaVu Sans Condensed,'"
       x="1163.3389"
       y="-12.646629"
       id="text3356"
       sodipodi:linespacing="94.999999%"><tspan
         sodipodi:role="line"
         id="tspan3358"
         x="1163.3389"
         y="-12.646629">Strand</tspan></text>
    <text
       xml:space="preserve"
       style="font-size:20px;font-style:normal;font-variant:normal;font-weight:normal;font-stretch:normal;text-align:center;line-height:94.99999881%;letter-spacing:0px;word-spacing:0px;writing-mode:lr-tb;text-anchor:middle;fill:#000000;fill-opacity:1;stroke:none;font-family:DejaVu Sans Condensed;-inkscape-font-specification:'DejaVu Sans Condensed,'"
       x="1067.0753"
       y="-103.52557"
       id="text3356-1"
       sodipodi:linespacing="94.999999%"><tspan
         sodipodi:role="line"
         id="tspan3358-7"
         x="1067.0753"
         y="-103.52557">Strand (detached)</tspan></text>
    <rect
       style="fill:#ffffff;fill-opacity:1;stroke:#000000;stroke-width:1.02708948;stroke-linecap:round;stroke-linejoin:round;stroke-miterlimit:4;stroke-opacity:1;stroke-dasharray:none"
       id="rect4006"
       width="466.90158"
       height="130.55714"
       x="20.415752"
       y="591.28027" />
    <text
       xml:space="preserve"
       style="font-size:40px;font-style:normal;font-variant:normal;font-weight:bold;font-stretch:normal;text-align:start;line-height:94.99999881%;letter-spacing:0px;word-spacing:0px;writing-mode:lr-tb;text-anchor:start;fill:#000000;fill-opacity:1;stroke:none;font-family:DejaVu Sans Condensed;-inkscape-font-specification:'DejaVu Sans Condensed, Bold'"
       x="29.686741"
       y="629.42218"
       id="text3992"
       sodipodi:linespacing="94.999999%"><tspan
         sodipodi:role="line"
         x="29.686741"
         y="629.42218"
         style="font-size:40px;font-style:normal;font-variant:normal;font-weight:bold;font-stretch:normal;text-align:start;line-height:94.99999881%;writing-mode:lr-tb;text-anchor:start;font-family:DejaVu Sans Condensed;-inkscape-font-specification:'DejaVu Sans Condensed, Bold'"
         id="tspan3061">Metropolitan Borough</tspan><tspan
         sodipodi:role="line"
         x="29.686741"
         y="667.42218"
         style="font-size:40px;font-style:normal;font-variant:normal;font-weight:bold;font-stretch:normal;text-align:start;line-height:94.99999881%;writing-mode:lr-tb;text-anchor:start;font-family:DejaVu Sans Condensed;-inkscape-font-specification:'DejaVu Sans Condensed, Bold'"
         id="tspan3347">of Westminster</tspan><tspan
         sodipodi:role="line"
         x="29.686741"
         y="705.42218"
         id="tspan3996"
         style="font-size:40px;font-style:normal;font-variant:normal;font-weight:bold;font-stretch:normal;text-align:start;line-height:94.99999881%;writing-mode:lr-tb;text-anchor:start;font-family:DejaVu Sans Condensed;-inkscape-font-specification:'DejaVu Sans Condensed, Bold'">Ward Map (1916)</tspan></text>
    <text
       xml:space="preserve"
       style="font-size:20px;font-style:oblique;font-variant:normal;font-weight:normal;font-stretch:normal;text-align:center;line-height:94.99999881%;letter-spacing:0px;word-spacing:0px;writing-mode:lr-tb;text-anchor:middle;fill:#2276d5;fill-opacity:1;stroke:none;font-family:DejaVu Sans Condensed;-inkscape-font-specification:'DejaVu Sans Condensed, Oblique'"
       id="text4002"
       sodipodi:linespacing="94.999999%"
       x="-241.4142"
       y="1079.0458"
       transform="matrix(0.11433444,-0.99344232,0.99344232,0.11433444,0,0)"><tspan
         style="font-size:20px;font-style:oblique;font-variant:normal;font-weight:normal;font-stretch:normal;text-align:center;line-height:94.99999881%;writing-mode:lr-tb;text-anchor:middle;font-family:DejaVu Sans Condensed;-inkscape-font-specification:'DejaVu Sans Condensed, Oblique'"
         id="tspan4004">River Thames</tspan></text>
  </g>
</svg>
